<?xml version="1.0" encoding="utf-8"?>
<!-- Generator: Adobe Illustrator 24.0.0, SVG Export Plug-In . SVG Version: 6.00 Build 0)  -->
<svg version="1.1" id="Capa_1" xmlns="http://www.w3.org/2000/svg" xmlns:xlink="http://www.w3.org/1999/xlink" x="0px" y="0px"
	 viewBox="0 0 512 512" style="enable-background:new 0 0 512 512;" xml:space="preserve">
<style type="text/css">
	.st0{fill:#FFFFFF;}
</style>
<path class="st0" d="M338.6,237.2c-7.1,0-14.4,1.4-21.2,3.9c-9.4-18.5-28.7-31.2-50.8-31.2c-7.9,0-15.4,1.5-22.3,4.2
	c-9.6-18-28.6-30.2-50.3-30.2c-5.5,0-10.8,0.8-15.9,2.2c0-6.4,0-13,0-19.5l0-51.1c0-13.6,0-20,0-23.2h0.1
	c0-29.1-25.5-52.8-56.8-52.8c-31.5,0-57.1,25.6-57.1,57.1v173.9c-21,7-39.6,26.4-40.3,54.1c-1.2,43.3,2.3,98.1,40.9,137.8
	c32.6,33.5,83.6,49.8,155.9,49.8c65,0,113.1-19.1,142.9-56.9c20.9-26.5,32-62.2,32-103.3l-0.1-57.7
	C395.7,262.8,370.1,237.2,338.6,237.2z M220.8,486.3c-153.1,0-173.5-77.6-171.1-161.2c0.6-20.2,17.9-32.1,32.1-32.1v37
	c0,4.7,3.2,5.2,4.2,5.2c1,0,4.1-0.5,4.1-5.2c0-4.5,0-233.7,0-233.7C90,79,104.1,65,121.4,65c15.9,0,31.1,11.4,31.1,27.2
	c0,0.1-0.1,115.3-0.1,143.6c0,0.1,0,0.1,0,0.2v5.9c0,2.8,2.3,5.1,5.1,5.1c2.8,0,5.1-2.3,5.1-5.1v-1.5c0.3-17.1,14.2-30.9,31.4-30.9
	c17.3,0,31.4,14.1,31.4,31.4l0,22.7c0,2.8,2.3,5,5,5c2.8,0,5-2.3,5-5l0-1.3c0-15.8,15.3-26.8,31.1-26.8c17.3,0,31.3,14.1,31.3,31.4
	l0.1,23c0,2.7,2.2,4.9,4.9,4.9s4.9-2.2,4.9-4.9l0-1.8c0-14.4,15.5-25.4,30.8-25.4c17.3,0,31.4,14.1,31.4,31.4l0.1,57.7
	C370.1,405.5,349.3,486.3,220.8,486.3z"/>
<g>
	<path class="st0" d="M386.8,180.3c-4,0-7.4-2.9-7.9-7c-0.6-4.4,2.5-8.4,6.9-8.9c25.3-3.2,47.9-10.1,63.7-19.3
		c14.5-8.4,22.4-18.3,22.4-27.9c0-10.5-9.3-19.2-17.1-24.5c-3.6-2.5-4.6-7.5-2.1-11.1c2.5-3.6,7.5-4.6,11.1-2.1
		c15.8,10.8,24.1,23.9,24.1,37.7c0,15.7-10.5,30.1-30.4,41.7c-17.9,10.4-42,17.8-69.8,21.3C387.5,180.3,387.2,180.3,386.8,180.3z"/>
	<path class="st0" d="M349.6,168.8l-21.3-21.3c-3.1-3.1-8.2-3.1-11.3,0c-3.1,3.1-3.1,8.2,0,11.3l6.2,6.2c-23.9-2.5-45.6-8-62.4-16.1
		c-18.9-9.1-29.7-20.7-29.7-31.8c0-9.4,7.8-19.2,21.9-27.5c3.8-2.3,5.1-7.2,2.8-11c-2.3-3.8-7.2-5.1-11-2.8
		c-24.5,14.5-29.7,30.5-29.7,41.3c0,17.7,13.8,34.1,38.8,46.2c19.4,9.3,44.5,15.6,71.9,18l-8.8,8.8c-3.1,3.1-3.1,8.2,0,11.3
		c1.6,1.6,3.6,2.3,5.7,2.3c2,0,4.1-0.8,5.7-2.3l21.3-21.3C352.7,177,352.7,171.9,349.6,168.8z"/>
	<path class="st0" d="M298.8,101.1v-1.9c0-6.8-4.2-8.1-9.7-8.1c-3.4,0-4.6-3-4.6-6.1c0-3,1.1-6.1,4.6-6.1c3.8,0,7.9-0.5,7.9-8.7
		c0-5.9-3.3-7.3-7.5-7.3c-5,0-7.5,1.2-7.5,5.2c0,3.4-1.5,5.8-7.4,5.8c-7.3,0-8.2-1.5-8.2-6.4c0-7.9,5.7-18.1,23.1-18.1
		c12.9,0,22.6,4.7,22.6,18.3c0,7.4-2.7,14.3-7.8,16.6c6,2.2,10.3,6.7,10.3,14.9v1.9c0,16.6-11.4,22.9-25.6,22.9
		c-17.4,0-24.1-10.6-24.1-19.1c0-4.6,1.9-5.8,7.5-5.8c6.5,0,8.1,1.4,8.1,5.3c0,4.8,4.5,5.9,9,5.9
		C296.3,110.3,298.8,107.7,298.8,101.1z"/>
	<path class="st0" d="M376.1,99.2v0.9c0,17.4-10.8,23.9-24.8,23.9s-24.9-6.5-24.9-23.9V73.3c0-17.4,11.2-23.9,25.8-23.9
		c17.1,0,23.9,10.6,23.9,19c0,4.9-2.3,6.4-7.4,6.4c-4.4,0-8.2-1.1-8.2-5.8c0-3.8-4.1-5.9-8.8-5.9c-6,0-9.5,3.1-9.5,10.1v9.1
		c3.2-3.5,7.8-4.5,12.7-4.5C366.3,77.9,376.1,83,376.1,99.2z M342.1,101.2c0,7,3.4,10,9.1,10s9-3,9-10v-0.9c0-7.4-3.3-10.2-9.1-10.2
		c-5.5,0-9,2.6-9,9.3V101.2z"/>
	<path class="st0" d="M388.3,100.1V73.3c0-17.4,10.8-23.9,24.8-23.9c14,0,24.9,6.5,24.9,23.9v26.8c0,17.4-10.9,23.9-24.9,23.9
		C399.2,124,388.3,117.6,388.3,100.1z M422.3,73.3c0-7-3.4-10.1-9.1-10.1s-9,3.1-9,10.1v26.8c0,7,3.3,10.1,9,10.1s9.1-3.1,9.1-10.1
		V73.3z"/>
	<path class="st0" d="M457.3,49.3c-13.2,0-24-10.8-24-24s10.8-24,24-24c13.2,0,24,10.8,24,24S470.5,49.3,457.3,49.3z M457.3,17.3
		c-4.4,0-8,3.6-8,8c0,4.4,3.6,8,8,8c4.4,0,8-3.6,8-8C465.3,20.9,461.7,17.3,457.3,17.3z"/>
</g>
</svg>
